<?xml version="1.0" standalone="no"?>
<!DOCTYPE svg PUBLIC "-//W3C//DTD SVG 20010904//EN"
 "http://www.w3.org/TR/2001/REC-SVG-20010904/DTD/svg10.dtd">
<svg version="1.0" xmlns="http://www.w3.org/2000/svg"
 width="16.000000pt" height="16.000000pt" viewBox="0 0 16.000000 16.000000"
 preserveAspectRatio="xMidYMid meet">
<metadata>
Created by potrace 1.11, written by Peter Selinger 2001-2013
</metadata>
<g transform="translate(0.000000,16.000000) scale(0.016667,-0.016667)"
fill="#000000" stroke="none">
<path d="M314 869 c-93 -17 -180 -79 -231 -167 -44 -74 -31 -134 37 -177 22
-14 40 -31 40 -38 0 -6 -16 -23 -36 -37 -73 -49 -84 -105 -38 -190 35 -64 91
-115 163 -148 44 -21 74 -26 142 -28 79 -2 91 0 156 32 80 38 138 96 179 175
29 58 73 106 132 143 20 13 43 30 50 39 14 17 15 17 -83 80 -40 26 -57 46 -90
110 -50 97 -93 142 -172 179 -66 31 -165 42 -249 27z m173 -124 c50 -21 69
-40 112 -107 35 -54 81 -95 144 -127 15 -8 27 -20 27 -27 0 -6 -23 -26 -50
-44 -51 -33 -130 -114 -130 -134 -1 -20 -48 -65 -90 -87 -108 -57 -276 7 -295
111 -7 42 20 93 65 118 40 23 46 44 18 62 -52 34 -79 66 -84 101 -6 33 -2 42
35 82 22 24 55 49 73 55 50 15 134 14 175 -3z"/>
</g>
</svg>
