<?xml version="1.0" encoding="utf-8"?>
<!-- Generator: Adobe Illustrator 21.0.2, SVG Export Plug-In . SVG Version: 6.00 Build 0)  -->
<svg version="1.1" id="Calque_1" xmlns="http://www.w3.org/2000/svg" xmlns:xlink="http://www.w3.org/1999/xlink" x="0px" y="0px"
	 viewBox="0 0 841.9 114" style="enable-background:new 0 0 841.9 114;" xml:space="preserve">
<style type="text/css">
	.st0{clip-path:url(#SVGID_2_);fill:url(#SVGID_3_);}
	.st1{clip-path:url(#SVGID_5_);fill:url(#SVGID_6_);}
	.st2{clip-path:url(#SVGID_8_);fill:url(#SVGID_9_);}
	.st3{clip-path:url(#SVGID_11_);fill:url(#SVGID_12_);}
	.st4{clip-path:url(#SVGID_14_);fill:url(#SVGID_15_);}
	.st5{clip-path:url(#SVGID_17_);fill:url(#SVGID_18_);}
	.st6{clip-path:url(#SVGID_20_);fill:url(#SVGID_21_);}
	.st7{clip-path:url(#SVGID_23_);fill:url(#SVGID_24_);}
	.st8{clip-path:url(#SVGID_26_);fill:url(#SVGID_27_);}
	.st9{clip-path:url(#SVGID_29_);fill:url(#SVGID_30_);}
	.st10{clip-path:url(#SVGID_32_);fill:url(#SVGID_33_);}
	.st11{clip-path:url(#SVGID_35_);fill:url(#SVGID_36_);}
	.st12{clip-path:url(#SVGID_38_);fill:url(#SVGID_39_);}
	.st13{clip-path:url(#SVGID_41_);fill:url(#SVGID_42_);}
	.st14{clip-path:url(#SVGID_44_);fill:url(#SVGID_45_);}
</style>
<g>
	<defs>
		<path id="SVGID_1_" d="M796.4,35.6v0.7C796.4,36,796.4,35.8,796.4,35.6C796.4,35.6,796.4,35.6,796.4,35.6"/>
	</defs>
	<clipPath id="SVGID_2_">
		<use xlink:href="#SVGID_1_"  style="overflow:visible;"/>
	</clipPath>
	
		<linearGradient id="SVGID_3_" gradientUnits="userSpaceOnUse" x1="0.3474" y1="114.002" x2="0.6675" y2="114.002" gradientTransform="matrix(56.3105 -0.1035 -0.1035 -56.3105 779.6455 6455.4766)">
		<stop  offset="0" style="stop-color:#009FE3"/>
		<stop  offset="1" style="stop-color:#FFCC00"/>
	</linearGradient>
	<polygon class="st0" points="796.4,35.6 796.4,35.6 796.4,36.2 796.4,36.2 	"/>
</g>
<g>
	<defs>
		<path id="SVGID_4_" d="M560,35.6v0.7C560,36,560,35.8,560,35.6C560,35.6,560,35.6,560,35.6"/>
	</defs>
	<clipPath id="SVGID_5_">
		<use xlink:href="#SVGID_4_"  style="overflow:visible;"/>
	</clipPath>
	
		<linearGradient id="SVGID_6_" gradientUnits="userSpaceOnUse" x1="0.499" y1="114.0098" x2="0.4991" y2="114.0098" gradientTransform="matrix(70.3304 -0.1292 -0.1292 -70.3304 539.6706 8054.3442)">
		<stop  offset="0" style="stop-color:#009FE3"/>
		<stop  offset="1" style="stop-color:#FFCC00"/>
	</linearGradient>
	<polygon class="st1" points="560,35.6 560,35.6 560,36.3 560,36.3 	"/>
</g>
<g>
	<defs>
		<path id="SVGID_7_" d="M270.5,12.2c-0.9,0-1.7,0.4-2.4,1.1c-0.7,0.8-1,1.7-1,2.7v25.9c0.3,2.2,1.1,4.6,3.2,7
			c0.3,0.4,0.7,0.7,1.2,1.1c3.8,3,10.4,5,10.5,7.3c0,2.1-5.9,4.9-9.6,8c-0.6,0.5-1.1,1-1.6,1.5c-2.8,3.2-3.5,4.7-3.7,7.3V100
			c0,1,0.3,1.9,1,2.7c0.6,0.8,1.4,1.1,2.3,1.1h8.4c0.9,0,1.7-0.4,2.4-1.1c0.7-0.8,1-1.7,1-2.7V76.3c0.4-4,2.5-6.7,6.5-10.4
			c3.7-3.4,8.5-6.4,8.5-8.8c0-2.5-7.5-5.5-10.8-9.2c-4.4-4.8-4.2-9-4.2-12.4c0,0,0,0,0,0V16c0-1-0.3-1.9-1-2.7
			c-0.6-0.8-1.4-1.1-2.3-1.1H270.5z"/>
	</defs>
	<clipPath id="SVGID_8_">
		<use xlink:href="#SVGID_7_"  style="overflow:visible;"/>
	</clipPath>
	
		<linearGradient id="SVGID_9_" gradientUnits="userSpaceOnUse" x1="-8.754310e-04" y1="113.9999" x2="1.0035" y2="113.9999" gradientTransform="matrix(800.4579 -1.471 -1.471 -800.4579 189.2898 91310.5938)">
		<stop  offset="0" style="stop-color:#009FE3"/>
		<stop  offset="1" style="stop-color:#FFCC00"/>
	</linearGradient>
	<polygon class="st2" points="267,12.2 297.2,12.1 297.4,103.8 267.1,103.8 	"/>
</g>
<g>
	<defs>
		<path id="SVGID_10_" d="M336.9,12.2c-0.9,0-1.7,0.4-2.4,1.1c-0.7,0.8-1,1.7-1,2.7v24.1c0.2,2.7,0.9,5.7,3.6,8.6
			c0.3,0.3,0.6,0.6,1,0.9c3.7,3.1,10.7,5.1,10.7,7.3c0,2.2-6.3,5.2-9.9,8.4c-0.4,0.4-0.9,0.8-1.2,1.2c-3.5,4.1-4.1,5.4-4.2,9.5V100
			c0,1,0.3,1.9,1,2.7c0.6,0.8,1.4,1.1,2.3,1.1h52.9c1,0,1.8-0.3,2.4-1c0.5-0.7,0.8-1.4,0.8-2.4V94c0-1-0.3-1.8-0.8-2.4
			c-0.5-0.7-1.3-1-2.4-1h-41.2V77.5c0,0,0,0,0,0c0-5.7,5.1-10,10.7-12.1c1.4-0.5,3.1-0.6,4.7-0.7H381c1,0,1.8-0.3,2.4-1
			c0.5-0.7,0.8-1.4,0.8-2.4V55c0-1-0.3-1.8-0.8-2.4c-0.5-0.7-1.3-1-2.4-1h-15.8c-1.4,0-2.9-0.2-4.1-0.8c-5.7-2.9-12.3-7-12.6-14.7
			V25.4h40.9c1,0,1.8-0.3,2.4-1c0.5-0.7,0.8-1.4,0.8-2.4v-6.5c0-1-0.3-1.8-0.8-2.4c-0.5-0.7-1.3-1-2.4-1H336.9z"/>
	</defs>
	<clipPath id="SVGID_11_">
		<use xlink:href="#SVGID_10_"  style="overflow:visible;"/>
	</clipPath>
	
		<linearGradient id="SVGID_12_" gradientUnits="userSpaceOnUse" x1="5.975240e-04" y1="114.0003" x2="1.0025" y2="114.0003" gradientTransform="matrix(800.451 -1.471 -1.471 -800.451 189.327 91310.2188)">
		<stop  offset="0" style="stop-color:#009FE3"/>
		<stop  offset="1" style="stop-color:#FFCC00"/>
	</linearGradient>
	<polygon class="st3" points="333.3,12.2 392.9,12.1 393,103.8 333.5,103.9 	"/>
</g>
<g>
	<defs>
		<path id="SVGID_13_" d="M488.3,12.2c-2,0-3.5,1-4.5,2.9l-18.5,31.2L445.8,15c-0.4-0.6-0.9-1.3-1.5-1.9c-0.6-0.6-1.6-1-3.1-1H432
			c-0.9,0-1.6,0.3-2.1,0.9c-0.5,0.6-0.7,1.3-0.7,2.1c0,0.8,0.3,1.6,0.8,2.4l18.3,27c1,1.3,2.1,2.7,3.3,4c1.7,1.9,4.7,3.5,7.1,4.9
			c2.2,1.3,4,2.4,4,3.6c0,1.2-1.8,2.6-4,4.1c-2.4,1.7-5.4,3.5-7,5.4c-1.4,1.6-2.3,2.8-3.1,3.9l-17.4,27.9c-0.5,0.8-0.8,1.6-0.8,2.4
			c0,0.8,0.2,1.5,0.7,2.1c0.5,0.6,1.2,0.8,2,0.8h8.2c1.4,0,2.5-0.3,3.1-1c0.6-0.6,1.1-1.3,1.5-1.9l19.7-32.6l21.2,32.6
			c0.4,0.6,0.9,1.3,1.5,1.9c0.6,0.6,1.6,1,3,1h9.3c0.9,0,1.6-0.3,2-0.9c0.5-0.6,0.7-1.3,0.7-2.1c0-0.8-0.3-1.6-0.8-2.4l-24-35.2
			c3.1-2.3,6.8-4,6.8-5.9c0-2-4.4-3.4-7.9-5.7l21.8-34.1c0.5-0.8,0.7-1.5,0.7-2.4c0-0.8-0.3-1.5-0.7-2.1c-0.5-0.6-1.2-0.8-2.1-0.8
			H488.3z"/>
	</defs>
	<clipPath id="SVGID_14_">
		<use xlink:href="#SVGID_13_"  style="overflow:visible;"/>
	</clipPath>
	
		<linearGradient id="SVGID_15_" gradientUnits="userSpaceOnUse" x1="2.370324e-04" y1="114.0006" x2="1.0005" y2="114.0006" gradientTransform="matrix(800.4337 -1.4709 -1.4709 -800.4337 190.045 91308.7109)">
		<stop  offset="0" style="stop-color:#009FE3"/>
		<stop  offset="1" style="stop-color:#FFCC00"/>
	</linearGradient>
	<polygon class="st4" points="429.1,12.2 503.3,12 503.5,103.8 429.2,103.9 	"/>
</g>
<g>
	<defs>
		<path id="SVGID_16_" d="M560,40.1v-3.8C560,37.5,559.9,38.7,560,40.1"/>
	</defs>
	<clipPath id="SVGID_17_">
		<use xlink:href="#SVGID_16_"  style="overflow:visible;"/>
	</clipPath>
	
		<linearGradient id="SVGID_18_" gradientUnits="userSpaceOnUse" x1="1.0815" y1="114.0009" x2="1.0817" y2="114.0009" gradientTransform="matrix(495.9223 -0.9113 -0.9113 -495.9223 127.4717 56574.7695)">
		<stop  offset="0" style="stop-color:#009FE3"/>
		<stop  offset="1" style="stop-color:#FFCC00"/>
	</linearGradient>
	<polygon class="st5" points="559.9,36.3 560,36.3 560,40.1 559.9,40.1 	"/>
</g>
<g>
	<defs>
		<path id="SVGID_19_" d="M560,35.6v0.7C560,36,560,35.8,560,35.6C560,35.6,560,35.6,560,35.6"/>
	</defs>
	<clipPath id="SVGID_20_">
		<use xlink:href="#SVGID_19_"  style="overflow:visible;"/>
	</clipPath>
	
		<linearGradient id="SVGID_21_" gradientUnits="userSpaceOnUse" x1="0.499" y1="114.0098" x2="0.4991" y2="114.0098" gradientTransform="matrix(70.3304 -0.1292 -0.1292 -70.3304 539.6706 8054.3442)">
		<stop  offset="0" style="stop-color:#009FE3"/>
		<stop  offset="1" style="stop-color:#FFCC00"/>
	</linearGradient>
	<polygon class="st6" points="560,35.6 560,35.6 560,36.3 560,36.3 	"/>
</g>
<g>
	<defs>
		<path id="SVGID_22_" d="M560,40.1v-3.8C560,37.5,559.9,38.7,560,40.1"/>
	</defs>
	<clipPath id="SVGID_23_">
		<use xlink:href="#SVGID_22_"  style="overflow:visible;"/>
	</clipPath>
	
		<linearGradient id="SVGID_24_" gradientUnits="userSpaceOnUse" x1="1.0815" y1="114.0009" x2="1.0817" y2="114.0009" gradientTransform="matrix(495.9223 -0.9113 -0.9113 -495.9223 127.4717 56574.7695)">
		<stop  offset="0" style="stop-color:#009FE3"/>
		<stop  offset="1" style="stop-color:#FFCC00"/>
	</linearGradient>
	<polygon class="st7" points="559.9,36.3 560,36.3 560,40.1 559.9,40.1 	"/>
</g>
<g>
	<defs>
		<path id="SVGID_25_" d="M560,40.1v-3.8C560,37.5,559.9,38.7,560,40.1"/>
	</defs>
	<clipPath id="SVGID_26_">
		<use xlink:href="#SVGID_25_"  style="overflow:visible;"/>
	</clipPath>
	
		<linearGradient id="SVGID_27_" gradientUnits="userSpaceOnUse" x1="-6.2862" y1="107.3206" x2="-5.2879" y2="107.3206" gradientTransform="matrix(5.770000e-02 0 0 -5.770000e-02 560.3403 44.3811)">
		<stop  offset="0" style="stop-color:#009FE3"/>
		<stop  offset="1" style="stop-color:#FFCC00"/>
	</linearGradient>
	<rect x="559.9" y="36.3" class="st8" width="0.1" height="3.8"/>
</g>
<g>
	<defs>
		<path id="SVGID_28_" d="M560,35.6v0.7C560,36,560,35.8,560,35.6C560,35.6,560,35.6,560,35.6"/>
	</defs>
	<clipPath id="SVGID_29_">
		<use xlink:href="#SVGID_28_"  style="overflow:visible;"/>
	</clipPath>
	
		<linearGradient id="SVGID_30_" gradientUnits="userSpaceOnUse" x1="560.0361" y1="35.928" x2="560.0449" y2="35.928" gradientTransform="matrix(7.700000e-03 0 0 -7.700000e-03 560.1863 36.6455)">
		<stop  offset="0" style="stop-color:#009FE3"/>
		<stop  offset="1" style="stop-color:#FFCC00"/>
	</linearGradient>
	<rect x="560" y="35.6" class="st9" width="0" height="0.7"/>
</g>
<g>
	<defs>
		<path id="SVGID_31_" d="M566,64.9c3.3-3.3,8.7-5.4,8.6-7.8c0-2.5-7.8-5.9-11.1-9.5c-2.5-2.8-3.3-5.2-3.5-7.5c-0.1-1.3,0-2.6,0-3.8
			v-0.7V25.1h12.7c3.1,0,5.9,0.4,8.4,1.2c8.1,2.6,12.1,8.5,12.1,17.6c0,7.2-2.4,12.6-7.1,16.3c-2.1,1.7-4.7,2.9-7.5,3.6
			c-2.9,0.8-5.5,1.1-8,1.1C568.8,65,567.3,65,566,64.9 M549.8,12.2c-1.7,0-2.9,0.5-3.6,1.6c-0.7,1.1-1.1,2.3-1.1,3.7v24.5
			c0.3,2.2,1.1,4.6,3.2,6.9c0.3,0.3,0.6,0.6,1,0.9c3.7,3.1,10.7,5.1,10.7,7.4c0,2.2-6.1,5.1-9.8,8.2c-0.5,0.4-0.9,0.9-1.3,1.3
			c-2.7,3.1-3.3,4.6-3.8,6.9v26.6c0,1,0.3,1.8,0.9,2.6c0.6,0.8,1.6,1.1,3,1.1h7.1c2.7,0,4.1-1.2,4.1-3.7V76.8
			c4.8,0.6,8.8,0.9,12.1,0.9c10.5,0,19.1-3,26-8.9c7.2-6.2,10.8-14.5,10.8-24.9c0-10.3-3.2-18.2-9.6-23.7c-6.1-5.3-14.8-8-25.9-8
			H549.8z"/>
	</defs>
	<clipPath id="SVGID_32_">
		<use xlink:href="#SVGID_31_"  style="overflow:visible;"/>
	</clipPath>
	
		<linearGradient id="SVGID_33_" gradientUnits="userSpaceOnUse" x1="1.349693e-03" y1="114.0005" x2="1.0017" y2="114.0005" gradientTransform="matrix(800.4525 -1.471 -1.471 -800.4525 188.8264 91311.0156)">
		<stop  offset="0" style="stop-color:#009FE3"/>
		<stop  offset="1" style="stop-color:#FFCC00"/>
	</linearGradient>
	<polygon class="st10" points="544.9,12.2 609,12 609.2,103.8 545,103.9 	"/>
</g>
<g>
	<defs>
		<path id="SVGID_34_" d="M759.8,12.2c-1,0-1.9,0.3-2.7,1c-0.7,0.7-1.1,1.4-1.1,2.4v6.3c0,1,0.4,1.8,1.1,2.4c0.7,0.6,1.6,1,2.7,1
			h21.6v16.1c0.3,2.4,1.1,5,3.4,7.5c0.3,0.4,0.7,0.7,1.2,1c3.8,3,10.5,5,10.5,7.2c0,2.2-6,5-9.7,8.1c-0.5,0.5-1,0.9-1.4,1.4
			c-2.9,3.3-3.7,4.8-4,7.5V100c0,1,0.3,1.9,1,2.7c0.6,0.8,1.4,1.1,2.3,1.1h8.4c0.9,0,1.7-0.4,2.4-1.1c0.7-0.8,1-1.7,1-2.7V74.2
			c0.2-2.7,1.1-4.3,4-7.6c3.2-3.6,11.1-7,11.1-9.5c0-2.5-8.3-4.7-11.7-8.3c-2.5-2.7-3.2-5.5-3.5-8v-4.5v-0.7V25.2h22.4
			c1,0,1.8-0.3,2.4-1c0.6-0.7,0.8-1.4,0.8-2.4v-6.3c0-1-0.3-1.8-0.8-2.4c-0.5-0.7-1.3-1-2.4-1H759.8z"/>
	</defs>
	<clipPath id="SVGID_35_">
		<use xlink:href="#SVGID_34_"  style="overflow:visible;"/>
	</clipPath>
	
		<linearGradient id="SVGID_36_" gradientUnits="userSpaceOnUse" x1="-1.574445e-04" y1="113.9996" x2="1.0013" y2="113.9996" gradientTransform="matrix(800.4506 -1.471 -1.471 -800.4506 189.0615 91310.4688)">
		<stop  offset="0" style="stop-color:#009FE3"/>
		<stop  offset="1" style="stop-color:#FFCC00"/>
	</linearGradient>
	<polygon class="st11" points="755.9,12.2 822,12 822.2,103.8 756,103.9 	"/>
</g>
<g>
	<defs>
		<path id="SVGID_37_" d="M41.5,81c-0.3-0.5-0.7-1-1-1.5c-1.8-3.1-1.8-9.6,2.1-14c3.2-3.6,9.8-5.8,9.8-8.3c0-2.5-6.3-4.2-9.6-7.8
			c-4.2-4.6-4.4-9.5-2.6-12.8c0.7-1,1.4-2,2.2-3c5.1-6.1,11.9-9.2,20.4-9.2c8.9,0,15.9,3.3,21,9.9c0.5,0.6,0.9,1.3,1.3,1.9
			c0.4,0.8,0.8,1.3,1.2,2c0.2,0.4,0.4,0.7,0.6,1.1c3.6,6.4,5.5,7.7,9.8,10.7c0.2,0.1,0.3,0.2,0.5,0.4c4.2,2.9,8.5,4.1,9.7,5.9
			c0,0.4,0,0.8,0,1.2c0,0.3,0,0.6,0,0.9c-1.4,2.2-6.8,5-10.1,7.4c-0.3,0.2-0.5,0.4-0.7,0.6c-3.8,3-6.2,5-9,9.8
			c-0.6,1-1.2,2.2-1.9,3.6c0,0,0,0,0,0.1c-0.4,0.6-0.8,1.3-1.2,1.9c-5,6.7-12.1,10.1-21.2,10.1C53.6,91.5,46.5,88,41.5,81
			 M30.9,23.8c-3.6,3.8-6.4,8.3-8.5,13.5c-0.8,3-0.8,7.9,2.9,12.1c0.5,0.6,1.2,1.1,1.8,1.6c3.1,2.4,7.1,3.8,7.7,5.7
			c0,0.1,0,0.1,0,0.2c0,0.2,0,0.5,0,0.7c-0.5,1.9-4.6,3.6-7.7,6.1c-0.7,0.6-1.4,1.2-2,1.8c-3.5,4-3.5,9.5-2.4,13
			c0.4,0.9,0.7,1.8,1.2,2.7c1.7,3.6,3.8,6.8,6.3,9.8c2.5,2.9,5.4,5.5,8.6,7.6c3.2,2.1,6.8,3.8,10.8,5c3.9,1.2,8.7,1.8,14.3,1.8
			c5.6,0,11.1-1.2,16.6-3.7c5.5-2.5,10.1-5.9,14-10.2c3.2-3.6,5.8-7.5,7.8-11.8c0,0,0,0,0,0c0.1-0.3,0.2-0.5,0.3-0.7
			c0.2-0.6,0.5-1.2,0.7-1.8c2.4-4.8,6.2-7.8,10.2-11c3.6-2.8,11.2-6.5,11.2-8.9c0-2.5-5.1-3.5-10.1-6.9c-4.8-3.3-6.7-4.5-10.6-11.6
			c-1.9-5.5-4.7-10.3-8.4-14.5c-7.9-9-18.9-13.4-32.8-13.4C49.8,10.7,39.1,15,30.9,23.8"/>
	</defs>
	<clipPath id="SVGID_38_">
		<use xlink:href="#SVGID_37_"  style="overflow:visible;"/>
	</clipPath>
	
		<linearGradient id="SVGID_39_" gradientUnits="userSpaceOnUse" x1="9.719876e-04" y1="113.9997" x2="0.9999" y2="113.9997" gradientTransform="matrix(800.4416 -1.471 -1.471 -800.4416 189.1225 91308.1719)">
		<stop  offset="0" style="stop-color:#009FE3"/>
		<stop  offset="1" style="stop-color:#FFCC00"/>
	</linearGradient>
	<polygon class="st12" points="21.3,10.7 124.8,10.5 125,105.3 21.5,105.5 	"/>
</g>
<g>
	<defs>
		<path id="SVGID_40_" d="M208.9,12.2c-0.9,0-1.7,0.4-2.4,1.1c-0.7,0.8-1,1.7-1,2.7v25.2c0.3,2.4,1.2,5,3.5,7.6
			c0.2,0.2,0.5,0.5,0.7,0.7c3.6,3.2,10.4,5.3,10.4,7.7c0,2.3-6.5,5-10,8.3c-0.3,0.3-0.6,0.5-0.8,0.8c-2.6,2.9-3.7,4.9-4.3,7.1
			c-0.3,1.2-0.5,2.4-0.8,3.9c0,0.1,0,0.1,0,0.2c-2.6,9.6-9.4,14.4-20.5,14.4c-6.6,0-11.7-2-15.4-6c-1.5-1.6-2.8-3.5-3.7-5.7
			c-1.2-3.8-1.7-10.1,2.1-13.6c3.5-3.3,10.2-6.9,10.2-9.4c0-2.5-7.5-4.7-10.8-8.4c-2.6-2.9-3.5-5.9-3.8-8.6V16c0-1-0.3-1.9-1-2.7
			c-0.6-0.8-1.4-1.1-2.3-1.1H151c-0.9,0-1.7,0.4-2.4,1.1c-0.7,0.8-1,1.7-1,2.7v26.1c0.3,2.2,1.1,4.5,3.2,6.8
			c0.3,0.3,0.5,0.5,0.8,0.8c3.7,3.2,10.7,5.3,10.7,7.6c0,2.2-6.3,5.1-10,8.2c-0.5,0.4-0.9,0.8-1.2,1.2c-2.6,2.9-3,7-2.7,10.4
			c1.4,7.5,4.6,13.7,9.5,18.5c6.7,6.5,15.3,9.8,25.9,9.8c10.6,0,19.1-3.1,25.7-9.4c5.6-5.4,9-12.4,10.2-21.1c0.7-3.2,1-4.6,4.1-8.2
			c3.2-3.6,11.2-6.9,11.2-9.4c0-2.5-8.3-4.7-11.6-8.4c-2.1-2.3-2.9-4.6-3.2-6.8V16c0-1-0.3-1.9-1-2.7c-0.6-0.8-1.4-1.1-2.3-1.1
			H208.9z"/>
	</defs>
	<clipPath id="SVGID_41_">
		<use xlink:href="#SVGID_40_"  style="overflow:visible;"/>
	</clipPath>
	
		<linearGradient id="SVGID_42_" gradientUnits="userSpaceOnUse" x1="1.931358e-03" y1="113.9997" x2="0.9996" y2="113.9997" gradientTransform="matrix(800.4496 -1.471 -1.471 -800.4496 189.2905 91310.1016)">
		<stop  offset="0" style="stop-color:#009FE3"/>
		<stop  offset="1" style="stop-color:#FFCC00"/>
	</linearGradient>
	<polygon class="st13" points="147.4,12.2 235.2,12 235.3,105.3 147.6,105.5 	"/>
</g>
<g>
	<defs>
		<path id="SVGID_43_" d="M673.2,65.4c3.9-3.2,12.4-5.8,12.4-8.3c0-2.5-4.3-2.8-7.7-6.3c-2.3-2.5-1.7-6.1-0.5-9.5
			c0.2-0.6,0.5-1.3,0.7-1.9c0.5-1.4,1-2.7,1.4-3.9l1.9-5.5c0.1-0.4,0.4-0.6,0.7-0.6c0.4,0,0.6,0.2,0.7,0.6l3.5,9.5
			c1.8,4.6,3.5,7,8.7,10.2c1.7,1,3.7,1.9,5.7,2.8c2.9,1.2,5.6,2.3,6.6,3.5l0.5,1.2c0,1.9-2.7,3.4-5.4,5.4c-1,0.8-2,1.6-2.8,2.5
			c-0.8,1-2.2,2.2-2.6,3.6H669C670.3,67.7,671.7,66.6,673.2,65.4 M681.8,12.2c-1.4,0-2.7,0.1-3.7,0.2c-3,0.4-5.2,2.4-6.5,6
			l-8.4,22.6c-0.8,3-1.2,6.2,0.3,8.8c0.2,0.4,0.5,0.7,0.8,1.1c3.2,3.6,7.5,3.9,7.6,6.3l-0.4,1.1c-1.7,2.2-8.6,4.5-12,7.3
			c-0.6,0.5-1.2,1-1.7,1.4c-3.3,3-6.2,6.4-8.4,11.2l-8,21.5c-0.1,0.3-0.2,0.8-0.2,1.3c0,0.5,0.3,1.2,0.9,1.9
			c0.6,0.7,1.5,1.1,2.6,1.1h7.7c1.9,0,3.1-0.9,3.6-2.6l6.9-19.4h39.3l7.4,19.4c0.7,1.7,2,2.6,3.8,2.6h8.4c1.1,0,1.9-0.3,2.4-1
			c0.5-0.7,0.7-1.3,0.7-1.9c0-0.6-0.1-1-0.2-1.3l-11.5-28.8c-0.5-2.5,0.1-4.7,0.8-5.5c3.1-3.7,8.7-5.6,8.1-8.4
			c-0.6-2.4-8.2-4.2-12.8-7.1c-4.9-3-6.5-5.5-8.3-9.5l-8.8-22.2c-0.9-2.3-2.2-3.9-3.9-5c-1-0.7-2.9-1-5.6-1H681.8z"/>
	</defs>
	<clipPath id="SVGID_44_">
		<use xlink:href="#SVGID_43_"  style="overflow:visible;"/>
	</clipPath>
	
		<linearGradient id="SVGID_45_" gradientUnits="userSpaceOnUse" x1="1.564781e-03" y1="113.9992" x2="1" y2="113.9992" gradientTransform="matrix(800.4417 -1.471 -1.471 -800.4417 189.3996 91308.8594)">
		<stop  offset="0" style="stop-color:#009FE3"/>
		<stop  offset="1" style="stop-color:#FFCC00"/>
	</linearGradient>
	<polygon class="st14" points="641,12.2 724.9,12 725.1,103.8 641.2,103.9 	"/>
</g>
</svg>
